<svg id="圖層_1" data-name="圖層 1" xmlns="http://www.w3.org/2000/svg" viewBox="0 0 432.09 419.98"><defs><style>.cls-1{fill:#142c14;}.cls-2{fill:#7fbe28;}.cls-3{fill:#7ebe28;}.cls-4{fill:#142c15;}</style></defs><path class="cls-1" d="M98.34,402.21c0-37.64-.12-75.29,0-112.94.12-27.14,9.89-50.61,29.47-69.29,17.31-16.52,38.18-25.64,62.51-26.27,78.43-2.05,156.86-.45,235.29-.81,20.69-.1,40.83,3,58.8,14.51q38.78,24.83,44.84,70.4a134.47,134.47,0,0,1,.85,17.93q0,109.93,0,219.88c0,48.74-35.29,89.27-83.55,95.69a170.85,170.85,0,0,1-22.4,1.22q-109.93.13-219.86,0c-16.84,0-33.62-1.31-49.24-8.76-31.9-15.2-50.66-40.18-55.71-75.18-2.32-16-.85-32.26-1-48.39C98.18,454.18,98.34,428.2,98.34,402.21Zm52.14-8v55.46c0,7.83,0,15.66,0,23.49,0,2.2-.06,4.54,3.19,4.49,21.62-.33,43.34,2.12,64.84-1,54.89-8,81.46-51.81,72.14-103.71-6.81-37.86-35.66-57.18-70.46-61.14-20.9-2.37-41.91-1.15-62.87-.52-6.86.21-6.86.38-6.86,7.46Zm213,46.56-.88-.09c-1.78-9.62-3.48-19.25-5.37-28.84q-5.64-28.53-12.72-56.76c-.61-2.44-1.39-4-4.1-4-10,0-20,0-30,0-2.45,0-3.57,1-2.8,3.82Q323.9,414.4,340,473.89c.84,3.11,2.53,3.83,5.39,3.8,9.32-.1,18.66-.18,28,0,3.53.08,5.06-1.32,5.89-4.56,4.3-16.85,8.78-33.65,13.08-50.51,2.81-11,5.41-22.14,8.41-34.47.69,3.23,1.13,5.16,1.51,7.1,5.11,26,11.18,51.84,17.18,77.67.8,3.42,2.45,4.9,6.23,4.79q13.49-.44,27,0c3.8.13,5.2-1.43,6.19-4.79Q476,414.55,493.44,356.22c1.14-3.81.61-5.23-3.49-5.17-8.16.12-16.32.1-24.48,0-3.12,0-4.62,1-5.47,4.31q-8.6,33.5-14.85,67.48c-1.19,6.55-2.62,13.05-3.93,19.57C435.54,413,429.38,384,422.44,355.14c-.76-3.14-2.11-4.1-5.05-4.08-9.49.08-19,.15-28.48,0-3.28-.06-4.79,1.2-5.52,4.26-4.69,19.66-9.52,39.29-14.16,59C367.15,423,365.38,431.92,363.47,440.77Z" transform="translate(-98.07 -192.65)"/><path class="cls-2" d="M150.48,394.21V318.75c0-7.08,0-7.25,6.86-7.46,21-.63,42-1.85,62.87.52,34.8,4,63.65,23.28,70.46,61.14,9.32,51.9-17.25,95.76-72.14,103.71-21.5,3.11-43.22.66-64.84,1-3.25.05-3.18-2.29-3.19-4.49,0-7.83,0-15.66,0-23.49ZM200,341.7c-3.16,0-6.35.24-9.48-.07-3.68-.35-4.33,1.21-4.32,4.54.12,29.8.07,59.59.07,89.39v8.49c0,1.36,0,2.62,1.92,2.8,17.6,1.72,34.79.79,49.19-10.93,16.26-13.22,20.2-31.37,18-51.17-2.55-23.07-14.19-35.94-36.58-41.48A67.6,67.6,0,0,0,200,341.7Z" transform="translate(-98.07 -192.65)"/><path class="cls-3" d="M363.47,440.77c1.91-8.85,3.68-17.73,5.76-26.53,4.64-19.67,9.47-39.3,14.16-59,.73-3.06,2.24-4.32,5.52-4.26,9.49.19,19,.12,28.48,0,2.94,0,4.29.94,5.05,4.08,6.94,28.85,13.1,57.86,18.78,87.27,1.31-6.52,2.74-13,3.93-19.57q6.23-34,14.85-67.48c.85-3.32,2.35-4.34,5.47-4.31,8.16.1,16.32.12,24.48,0,4.1-.06,4.63,1.36,3.49,5.17Q475.93,414.54,458.81,473c-1,3.36-2.39,4.92-6.19,4.79q-13.49-.45-27,0c-3.78.11-5.43-1.37-6.23-4.79-6-25.83-12.07-51.64-17.18-77.67-.38-1.94-.82-3.87-1.51-7.1-3,12.33-5.6,23.43-8.41,34.47-4.3,16.86-8.78,33.66-13.08,50.51-.83,3.24-2.36,4.64-5.89,4.56-9.32-.22-18.66-.14-28,0-2.86,0-4.55-.69-5.39-3.8Q323.92,414.4,307.62,355c-.77-2.8.35-3.81,2.8-3.82,10-.07,20,0,30,0,2.71,0,3.49,1.54,4.1,4q7,28.25,12.72,56.76c1.89,9.59,3.59,19.22,5.37,28.84Z" transform="translate(-98.07 -192.65)"/><path class="cls-4" d="M200,341.7a67.6,67.6,0,0,1,18.81,1.57c22.39,5.54,34,18.41,36.58,41.48,2.19,19.8-1.75,37.95-18,51.17-14.4,11.72-31.59,12.65-49.19,10.93-1.94-.18-1.91-1.44-1.92-2.8v-8.49c0-29.8.05-59.59-.07-89.39,0-3.33.64-4.89,4.32-4.54C193.66,341.94,196.85,341.7,200,341.7Z" transform="translate(-98.07 -192.65)"/></svg>