<svg id="圖層_1" data-name="圖層 1" xmlns="http://www.w3.org/2000/svg" viewBox="0 0 411.53 400.61"><defs><style>.cls-1{fill:#300204;}.cls-2{fill:#f29618;}.cls-3{fill:#f39618;}.cls-4{fill:#ac5218;}.cls-5{fill:#dd7d10;}.cls-6{fill:#953f16;}.cls-7{fill:#b47122;}.cls-8{fill:#b6651d;}.cls-9{fill:#7e4522;}.cls-10{fill:#d08320;}.cls-11{fill:#d17a1b;}.cls-12{fill:#320404;}.cls-13{fill:#743c20;}</style></defs><path class="cls-1" d="M432.79,584.07H155.13c-.3-.6-.85-.65-1.43-.67a16,16,0,0,1-1.83-.1,75.77,75.77,0,0,1-11-2.28,69.93,69.93,0,0,1-20.3-9.27,99.68,99.68,0,0,1-8.53-6.7,63.93,63.93,0,0,1-7.21-7.42A72.07,72.07,0,0,1,90.13,528c-1.09-4.35-1.37-8.79-1.94-13.2a49.68,49.68,0,0,1-.3-6.33q0-125.15,0-250.29c0-3.53.56-7,.84-10.47a63.35,63.35,0,0,1,2.2-11.13A70.32,70.32,0,0,1,99.69,217a74.15,74.15,0,0,1,6.55-8.65,69.75,69.75,0,0,1,12.2-11.09,75.36,75.36,0,0,1,16.94-9,70.5,70.5,0,0,1,25.48-4.75q130.29-.09,260.59,0a88.79,88.79,0,0,1,10.18.26c2.82.32,5.65.54,8.44,1.08A72.83,72.83,0,0,1,467.26,196a79.87,79.87,0,0,1,7.54,5.8,65.06,65.06,0,0,1,10.55,11.58,72.45,72.45,0,0,1,10.38,20.11,70.75,70.75,0,0,1,3.61,21.65q0,127.39,0,254.8a83.08,83.08,0,0,1-1,13.46,69.37,69.37,0,0,1-10.48,27.08,72.09,72.09,0,0,1-12.74,14.94,73.07,73.07,0,0,1-14.2,9.94A71.45,71.45,0,0,1,434,583.41,1.3,1.3,0,0,0,432.79,584.07ZM391.33,275.4h0a.34.34,0,0,0-.38-.24.7.7,0,0,0-.24-.13.37.37,0,0,0-.41-.24.8.8,0,0,0-.25-.11.7.7,0,0,0-.7-.33.77.77,0,0,0-.25-.1.36.36,0,0,0-.43-.21.57.57,0,0,0-.25-.08,4.28,4.28,0,0,0-2.11-.81,23.22,23.22,0,0,0-8.08-.82,13.42,13.42,0,0,0-5.34,1.05h0a.27.27,0,0,0-.3,0c-1,.4-1.95.74-2.89,1.19a20.93,20.93,0,0,0-6.52,4.84c-4.72,5.26-5.87,11.56-4.79,18.24,1.43,8.92,6.65,14.7,15.48,17a.45.45,0,0,0,.71.19l1,.14a1.22,1.22,0,0,0,1.35.19c1.22,0,2.45,0,3.67,0A19.67,19.67,0,0,0,397,306.44a22.11,22.11,0,0,0,3.6-9.58.71.71,0,0,0,.07-.74l.06-4.33a.49.49,0,0,0,0-.64l-.07-.61a.35.35,0,0,0-.12-.45c-.89-6-3.57-11-8.73-14.43A.39.39,0,0,0,391.33,275.4Zm-216.5,191h32.22A2.87,2.87,0,0,0,209,466a3.17,3.17,0,0,0,1.74-2.29c2.89-9,5.76-18,8.73-26.94,1.42-4.3,2.58-8.69,4.24-12.91l61.36,0c.83,0,1.67,0,2.5.06l5.67,16.42,8.1,23.5c.31.9.61,1.8,1.63,2.16a2.39,2.39,0,0,0,1.76.35h34.54a2.78,2.78,0,0,0,1.93-.35c.58-.21.66-.69.67-1.22a4.69,4.69,0,0,0-.39-1.95c-1.3-3-2.31-6.19-3.41-9.3-.93-2.64-1.83-5.31-2.76-8-4.29-12.32-8.7-24.6-13.06-36.89q-1.8-5.06-3.59-10.11l-9.23-26L292.87,326c-3.52-9.91-7.06-19.81-10.54-29.73-1-2.81-2.22-5.53-3-8.41-.16-.58-.29-1.21-1-1.46a.67.67,0,0,0-.8-.21c-.55,0-1.1-.11-1.66-.11H234.08c-.44,0-.88.05-1.33.07a.63.63,0,0,0-.76.27c-.66.31-.73.92-.75,1.54,0,1,0,2.09-.06,3.14l0,.4-.22,2.61a.3.3,0,0,0-.1.43,38,38,0,0,1-.54,4.25.32.32,0,0,0-.15.41c-1.43,5.54-3.61,10.83-5.36,16.26-.87,2.73-2,5.4-2.87,8.12-3.4,10-6.94,20-10.4,30.07-1.05,3-2.16,6-3.19,9.06-4.42,12.93-8.95,25.81-13.44,38.71l-13.74,39.5-7.8,22.4a.29.29,0,0,0-.13.37,3.17,3.17,0,0,0,.31,2.05.33.33,0,0,0,.32.3l.36.15A.54.54,0,0,0,174.83,466.38Zm187-136.65-.65.15a.42.42,0,0,0-.45.26c-1,.7-.76,1.77-.76,2.74q0,65,0,129.93v1a2.41,2.41,0,0,0,1.86,2.62,3.23,3.23,0,0,0,1.79.25h31.31a3.25,3.25,0,0,0,1.79-.25,1.66,1.66,0,0,0,1.33-1.35.64.64,0,0,0,.19-.74c0-.56.06-1.11.06-1.67V333.1a5.84,5.84,0,0,0-.12-1.82.27.27,0,0,0-.15-.38.85.85,0,0,0-.37-.63.31.31,0,0,0-.36-.27l-.53-.17a3.24,3.24,0,0,0-1.94-.24H363.65A4.85,4.85,0,0,0,361.83,329.73Z" transform="translate(-87.85 -183.46)"/><path class="cls-2" d="M278.35,286.4c.68.25.81.88,1,1.46.79,2.88,2,5.6,3,8.41,3.48,9.92,7,19.82,10.54,29.73l16.53,46.57,9.23,26q1.78,5.06,3.59,10.11c4.36,12.29,8.77,24.57,13.06,36.89.93,2.65,1.83,5.32,2.76,8,1.1,3.11,2.11,6.27,3.41,9.3a4.69,4.69,0,0,1,.39,1.95c0,.53-.09,1-.67,1.22H302.94c-1-.36-1.32-1.26-1.63-2.16l-8.1-23.5L287.54,424c-.46-.57-1.12-.39-1.71-.39H225.26c-.54,0-1.13-.18-1.58.3-1.66,4.22-2.82,8.61-4.24,12.91-3,9-5.84,18-8.73,26.94A3.17,3.17,0,0,1,209,466q-16.12,0-32.25,0c-.67,0-1.34.06-2,.1l-.53.05-.36-.15a.38.38,0,0,0-.32-.3,3.17,3.17,0,0,1-.31-2.05.29.29,0,0,0,.13-.37l7.8-22.4,13.74-39.5c4.49-12.9,9-25.78,13.44-38.71,1-3,2.14-6,3.19-9.06,3.46-10,7-20,10.4-30.07.92-2.72,2-5.39,2.87-8.12,1.75-5.43,3.93-10.72,5.36-16.26a.34.34,0,0,0,.15-.41,38,38,0,0,0,.54-4.25.34.34,0,0,0,.1-.43l.22-2.61s.11-.08.1-.12a1.4,1.4,0,0,0-.06-.28c0-1.05,0-2.1.06-3.14,0-.62.09-1.23.75-1.54a1,1,0,0,0,.76-.27c.45,0,.89-.07,1.33-.07h41.81c.56,0,1.11.07,1.66.11A1.05,1.05,0,0,0,278.35,286.4Zm-1.48,102.7c.44-.28.41-.61.11-1a2.67,2.67,0,0,1-.2-.46c-2.92-9.49-6.18-18.88-9-28.4-1.18-3.93-2.46-7.83-3.8-11.72-.91-2.65-1.62-5.41-2.45-8.11-2-6.64-3.82-13.35-5.75-20-.15-.54-.12-1.21-.66-1.57-.39.15-.38.46-.44.72-.5,2-1,4.09-1.5,6.13-1.21,4.63-2.35,9.28-3.76,13.87-3.18,10.39-6.62,20.7-9.6,31.16q-2.37,8.27-5.19,16.38a7.78,7.78,0,0,0-.8,2.68l-.05.33a2.67,2.67,0,0,0,1.77.34h39.61a2.6,2.6,0,0,0,1.76-.35Z" transform="translate(-87.85 -183.46)"/><path class="cls-3" d="M361.82,466.44a2.41,2.41,0,0,1-1.86-2.62v-1q0-65,0-129.93c0-1-.26-2,.76-2.74l.45-.26.65-.15a5.16,5.16,0,0,0,2.14.2H394.6c.72,0,1.44-.06,2.16-.1l.53.17a.4.4,0,0,0,.36.27.85.85,0,0,1,.37.63l.15.38a5.84,5.84,0,0,1,.12,1.82V462.68c0,.56,0,1.11-.06,1.67a.81.81,0,0,0-.19.74,1.66,1.66,0,0,1-1.33,1.35c-.39,0-.78-.07-1.17-.07H363C362.6,466.36,362.21,466.41,361.82,466.44Z" transform="translate(-87.85 -183.46)"/><path class="cls-2" d="M373.86,314.72c-8.83-2.34-14.05-8.12-15.48-17-1.08-6.68.07-13,4.79-18.24a20.93,20.93,0,0,1,6.52-4.84c.94-.45,1.92-.79,2.89-1.19.11.12.22.12.3,0h0c1.55,0,3-.62,4.56-.66a33.36,33.36,0,0,1,8.86.66,6.44,6.44,0,0,0,2.1.58.57.57,0,0,1,.26.08.45.45,0,0,0,.43.21.77.77,0,0,1,.25.1.86.86,0,0,0,.7.33.8.8,0,0,1,.25.11.44.44,0,0,0,.41.24.7.7,0,0,1,.24.13.35.35,0,0,0,.38.24h0a.42.42,0,0,0,.4.26c5.16,3.45,7.84,8.4,8.73,14.43a.39.39,0,0,0,.12.45l.07.61a.57.57,0,0,0,0,.64l-.06,4.33a.71.71,0,0,0-.07.74,22.11,22.11,0,0,1-3.6,9.58,19.67,19.67,0,0,1-16.36,8.81c-1.22,0-2.45,0-3.67,0a1.92,1.92,0,0,0-1.35-.19l-1-.14A.82.82,0,0,0,373.86,314.72Z" transform="translate(-87.85 -183.46)"/><path class="cls-4" d="M223.68,423.87c.45-.48,1-.3,1.58-.3h60.57c.59,0,1.25-.18,1.71.39-.83,0-1.67-.06-2.5-.06Z" transform="translate(-87.85 -183.46)"/><path class="cls-5" d="M302.94,466h38.23a2.78,2.78,0,0,1-1.93.35H304.7A2.39,2.39,0,0,1,302.94,466Z" transform="translate(-87.85 -183.46)"/><path class="cls-6" d="M361.82,466.44c.39,0,.78-.08,1.16-.08h32.56c.39,0,.78,0,1.17.07a3.25,3.25,0,0,1-1.79.25H363.61A3.23,3.23,0,0,1,361.82,466.44Z" transform="translate(-87.85 -183.46)"/><path class="cls-7" d="M396.76,329.83c-.72,0-1.44.1-2.16.1H364a5.16,5.16,0,0,1-2.14-.2,4.85,4.85,0,0,1,1.82-.14h31.17A3.24,3.24,0,0,1,396.76,329.83Z" transform="translate(-87.85 -183.46)"/><path class="cls-5" d="M174.72,466.14c.66,0,1.33-.1,2-.1q16.13,0,32.25,0a2.87,2.87,0,0,1-1.92.38H174.83A2.56,2.56,0,0,0,174.72,466.14Z" transform="translate(-87.85 -183.46)"/><path class="cls-7" d="M386.3,273.38a33.36,33.36,0,0,0-8.86-.66c-1.56,0-3,.65-4.56.66a13.42,13.42,0,0,1,5.34-1.05,23.22,23.22,0,0,1,8.08.82Z" transform="translate(-87.85 -183.46)"/><path class="cls-8" d="M386.3,273.38v-.23a4.21,4.21,0,0,1,2.1.81A6.44,6.44,0,0,1,386.3,273.38Z" transform="translate(-87.85 -183.46)"/><path class="cls-9" d="M375.57,315.05a1.92,1.92,0,0,1,1.35.19A1.22,1.22,0,0,1,375.57,315.05Z" transform="translate(-87.85 -183.46)"/><path class="cls-6" d="M400.68,291.79a.57.57,0,0,1,0-.64A.49.49,0,0,1,400.68,291.79Z" transform="translate(-87.85 -183.46)"/><path class="cls-9" d="M373.86,314.72a.82.82,0,0,1,.71.19A.45.45,0,0,1,373.86,314.72Z" transform="translate(-87.85 -183.46)"/><path class="cls-8" d="M390,274.68a.86.86,0,0,1-.7-.33A.7.7,0,0,1,390,274.68Z" transform="translate(-87.85 -183.46)"/><path class="cls-10" d="M232.75,286.15a1,1,0,0,1-.76.27A.63.63,0,0,1,232.75,286.15Z" transform="translate(-87.85 -183.46)"/><path class="cls-10" d="M278.35,286.4a1.05,1.05,0,0,1-.8-.21A.67.67,0,0,1,278.35,286.4Z" transform="translate(-87.85 -183.46)"/><path class="cls-6" d="M400.55,296.86a.71.71,0,0,1,.07-.74A.71.71,0,0,1,400.55,296.86Z" transform="translate(-87.85 -183.46)"/><path class="cls-11" d="M398,465.09a.81.81,0,0,1,.19-.74A.64.64,0,0,1,398,465.09Z" transform="translate(-87.85 -183.46)"/><path class="cls-9" d="M174.72,466.14a2.56,2.56,0,0,1,.11.24.54.54,0,0,1-.64-.19Z" transform="translate(-87.85 -183.46)"/><path class="cls-7" d="M372.88,273.37c-.08.16-.19.16-.3,0A.27.27,0,0,1,372.88,273.37Z" transform="translate(-87.85 -183.46)"/><path class="cls-8" d="M389.09,274.25a.45.45,0,0,1-.43-.21A.36.36,0,0,1,389.09,274.25Z" transform="translate(-87.85 -183.46)"/><path class="cls-8" d="M390.7,275a.44.44,0,0,1-.41-.24A.37.37,0,0,1,390.7,275Z" transform="translate(-87.85 -183.46)"/><path class="cls-8" d="M391.32,275.4a.35.35,0,0,1-.38-.24A.34.34,0,0,1,391.32,275.4Z" transform="translate(-87.85 -183.46)"/><path class="cls-8" d="M391.73,275.66a.42.42,0,0,1-.4-.26A.39.39,0,0,1,391.73,275.66Z" transform="translate(-87.85 -183.46)"/><path class="cls-6" d="M230.28,298.79a.34.34,0,0,1-.15.41A.32.32,0,0,1,230.28,298.79Z" transform="translate(-87.85 -183.46)"/><path class="cls-7" d="M361.18,329.88l-.45.26A.42.42,0,0,1,361.18,329.88Z" transform="translate(-87.85 -183.46)"/><path class="cls-7" d="M397.65,330.27a.4.4,0,0,1-.36-.27A.31.31,0,0,1,397.65,330.27Z" transform="translate(-87.85 -183.46)"/><path class="cls-11" d="M398.17,331.28l-.15-.38A.27.27,0,0,1,398.17,331.28Z" transform="translate(-87.85 -183.46)"/><path class="cls-6" d="M230.92,294.11a.34.34,0,0,1-.1.43A.3.3,0,0,1,230.92,294.11Z" transform="translate(-87.85 -183.46)"/><path class="cls-8" d="M231.18,291.1a1.4,1.4,0,0,1,.06.28s-.06.08-.1.12Z" transform="translate(-87.85 -183.46)"/><path class="cls-9" d="M173.33,463.32a.29.29,0,0,1-.13.37A.29.29,0,0,1,173.33,463.32Z" transform="translate(-87.85 -183.46)"/><path class="cls-9" d="M173.51,465.74a.38.38,0,0,1,.32.3A.33.33,0,0,1,173.51,465.74Z" transform="translate(-87.85 -183.46)"/><path class="cls-6" d="M400.58,290.54a.39.39,0,0,1-.12-.45A.35.35,0,0,1,400.58,290.54Z" transform="translate(-87.85 -183.46)"/><path class="cls-12" d="M233.8,388.77a7.78,7.78,0,0,1,.8-2.68q2.82-8.13,5.19-16.38c3-10.46,6.42-20.77,9.6-31.16,1.41-4.59,2.55-9.24,3.76-13.87.53-2,1-4.09,1.5-6.13.06-.26,0-.57.44-.72.54.36.51,1,.66,1.57,1.93,6.68,3.71,13.39,5.75,20,.83,2.7,1.54,5.46,2.45,8.11,1.34,3.89,2.62,7.79,3.8,11.72,2.85,9.52,6.11,18.91,9,28.4a2.67,2.67,0,0,0,.2.46c0,.33-.08.66-.11,1h0l-16,0L234.1,389Z" transform="translate(-87.85 -183.46)"/><path class="cls-10" d="M234.1,389l26.75.05,16,0a2.6,2.6,0,0,1-1.76.35H235.52a2.67,2.67,0,0,1-1.77-.34Z" transform="translate(-87.85 -183.46)"/><path class="cls-10" d="M276.87,389.1c0-.32.07-.65.1-1C277.28,388.49,277.31,388.82,276.87,389.1Z" transform="translate(-87.85 -183.46)"/><path class="cls-13" d="M234.1,389l-.35.11.05-.33Z" transform="translate(-87.85 -183.46)"/></svg>