<svg id="圖層_1" data-name="圖層 1" xmlns="http://www.w3.org/2000/svg" viewBox="0 0 743.1 162.55"><defs><style>.cls-1{fill:#6fc5c6;}</style></defs><path class="cls-1" d="M318.3,316.56V291.38a4,4,0,0,0-.59-2.3L293.14,245.3h17.43c5.51,10.75,12.66,25.05,16.21,32.79,3.11-7.47,10.91-22.47,16.29-32.79h16.12l-24.88,43.56a3.38,3.38,0,0,0-.59,2.28v25.42Z" transform="translate(-55.08 -198.12)"/><path class="cls-1" d="M370.68,300.1l-5.56,16.46H350l24.2-71.26h19.35l25.25,71.26h-16.2l-5.86-16.46Zm22.72-12.63c-5.06-15-8.29-24.65-10-31.05h-.1c-1.76,7-5.32,18.2-9.37,31.05Z" transform="translate(-55.08 -198.12)"/><path class="cls-1" d="M463.88,295.67c1.62,7.16,6.76,10.29,15,10.29s11.74-3.25,11.74-8.46c0-5.8-3.44-8.32-15.62-11.15-19.4-4.56-24.19-11.61-24.19-21.23,0-12.42,9.29-20.86,26.16-20.86,18.92,0,26.46,10.17,27.48,20.6H488.93c-.74-4.39-3.17-9.15-12.35-9.15-6.26,0-10,2.58-10,7.64s3,7,14.54,9.64c20.73,4.88,25.27,12.59,25.27,22.64,0,13-9.84,21.94-28.68,21.94-18.09,0-27.62-8.91-29.32-21.9Z" transform="translate(-55.08 -198.12)"/><path class="cls-1" d="M517.74,245.3h15.4v27.79h28.68V245.3h15.41v71.26H561.82V285.72H533.14v30.84h-15.4Z" transform="translate(-55.08 -198.12)"/><path class="cls-1" d="M643.36,285.82H609.28v18.11h37.59L645,316.56H594.32V245.3h50.53v12.63H609.28v15.26h34.08Z" transform="translate(-55.08 -198.12)"/><path class="cls-1" d="M657.89,316.56V245.3H677c8.9,16,25.35,44.86,28.63,52.62h.19c-.8-7.44-.79-19.81-.79-31.5V245.3h14v71.26H700.87c-7.65-13.93-25.88-47.08-29.41-55.31h-.2c.52,6.23.69,20.87.69,33.64v21.67Z" transform="translate(-55.08 -198.12)"/><path class="cls-1" d="M797.93,316.56H786.64a38.79,38.79,0,0,1-1.18-7c-4,5.33-10.91,8.22-20.81,8.22-20.69,0-32.25-15.63-32.25-35.93,0-21.42,12.47-37.56,34.93-37.56,18.34,0,29.13,10.35,30.86,22.5H782.78c-1.47-4.77-5.23-10.41-15.66-10.41-14.63,0-18.8,12.23-18.8,24.8,0,12.26,4.77,24.33,18.9,24.33,13.17,0,15.6-9.14,15.6-15.52v-.64H767.19V276.69h30.74Z" transform="translate(-55.08 -198.12)"/><path class="cls-1" d="M245,205.15a233.35,233.35,0,0,0-30.86-5.32,262.55,262.55,0,0,0-42-1.44c-20.55.91-40.66,4.13-59.39,13.21-15.56,7.54-28.1,18.44-36.18,34a73.57,73.57,0,0,0-8.18,33.84,77.64,77.64,0,0,0,.6,13.77c1.3-1.46,2.48-2.78,3.67-4.09a166.54,166.54,0,0,1,46-35.53c.23-.12.45-.29.67-.43a14.75,14.75,0,0,0,3.74-1.93l2.72-1.26c.26-.14.53-.27.8-.4a2.68,2.68,0,0,0,1.59-.67,3.76,3.76,0,0,0,1.78-.89,1.22,1.22,0,0,0,1.07-.44.79.79,0,0,0,.83-.36,1.45,1.45,0,0,0,1.19-.48,3.22,3.22,0,0,0,1.77-.72c7.64-2.66,15.22-5.5,23.08-7.49a185.43,185.43,0,0,1,37.62-6,48.13,48.13,0,0,1,6.8-.2,5.1,5.1,0,0,1-2.33,1.5,373.35,373.35,0,0,0-57,27.79c-21.81,13-42.09,28.07-59.37,46.85C72.37,320.56,63,333.86,56.2,349c-.28.64-.33,1.48-1.12,1.83v2.82a12.68,12.68,0,0,0,7.23,6.2c6.31,2.15,8.19,0,10.09-4a182.74,182.74,0,0,1,22.86-35.58,1.47,1.47,0,0,1,2-.63,206,206,0,0,0,23.63,6.87l2,.11c0,.11.07.22.1.33l5.58.7a91.2,91.2,0,0,0,26.65.15A57.36,57.36,0,0,0,185.41,314c8.32-7.38,14.13-16.6,19.23-26.32,5.53-10.55,10.16-21.54,15.87-32,5.84-10.71,12.64-20.71,21.65-29.08a102.28,102.28,0,0,1,19.47-13.76v-1.21C256.63,208,250.77,206.63,245,205.15Zm-114,41.15a2.37,2.37,0,0,0-.34-1.68,3.57,3.57,0,0,0-1.28-1.14,3.57,3.57,0,0,1,1.28,1.14,2.37,2.37,0,0,1,.34,1.68.84.84,0,0,1,.61.25A.84.84,0,0,0,130.93,246.3Zm6.85,75.85Zm-1.25.26a5.32,5.32,0,0,0-1.64.74A5.32,5.32,0,0,1,136.53,322.41Zm76.51-77c0,.07-.08.21-.13.32h0C213,245.64,213.07,245.5,213,245.43Zm-1.45,1.79a1.3,1.3,0,0,0,.43-.11h0A1.3,1.3,0,0,1,211.59,247.22Zm-2.81-3.34,1.21.41-1.21-.41Zm-1.15,2.79a2.52,2.52,0,0,1-.07-.76h0a3.68,3.68,0,0,0-.35-.15,3.68,3.68,0,0,1,.35.15h0A2.52,2.52,0,0,0,207.63,246.67Zm.78.64a2,2,0,0,0,.77-.19c.14.4.27.79.4,1.19-.13-.4-.26-.79-.4-1.19A2,2,0,0,1,208.41,247.31Zm1.17,1.83c-.19-.14-.29-.27-.29-.41,0,.14.1.27.29.41a1.24,1.24,0,0,0,.09.45A1.24,1.24,0,0,1,209.58,249.14Zm2,.79a2.78,2.78,0,0,1-.41.75,2.78,2.78,0,0,0,.41-.75,1.17,1.17,0,0,0,.46-.08A1.17,1.17,0,0,1,211.61,249.93Zm2.82-2.42h0a3.23,3.23,0,0,1-.25.76A3.23,3.23,0,0,0,214.43,247.51Z" transform="translate(-55.08 -198.12)"/></svg>